<?xml version="1.0" standalone="no"?>
<!DOCTYPE svg PUBLIC "-//W3C//DTD SVG 20010904//EN"
 "http://www.w3.org/TR/2001/REC-SVG-20010904/DTD/svg10.dtd">
<svg version="1.0" xmlns="http://www.w3.org/2000/svg"
 width="600.000000pt" height="598.000000pt" viewBox="0 0 600.000000 598.000000"
 preserveAspectRatio="xMidYMid meet">
<g transform="translate(0.000000,598.000000) scale(0.100000,-0.100000)"
fill="#000000" stroke="none">
<path d="M2380 4862 c4 -17 6 -33 2 -36 -3 -3 2 -6 12 -6 9 0 14 5 11 10 -4 7
114 10 347 11 623 2 745 0 830 -11 332 -44 582 -195 774 -466 139 -196 208
-397 208 -601 0 -89 2 -102 18 -106 21 -6 26 28 6 36 -9 4 -10 8 -2 14 13 10
2 161 -19 253 -63 268 -220 511 -434 669 -18 14 -30 28 -27 32 2 4 -1 11 -7
15 -8 4 -9 3 -5 -4 11 -18 0 -14 -45 14 -140 88 -255 129 -474 170 -22 4 -296
9 -609 11 -385 2 -573 7 -582 14 -11 9 -11 5 -4 -19z"/>
<path d="M2218 4862 c-20 -2 -42 -10 -48 -18 -7 -8 -18 -14 -25 -14 -6 0 -24
-14 -38 -30 -59 -66 -57 2 -57 -1740 0 -878 -2 -1605 -6 -1614 -4 -10 -13 -15
-21 -12 -8 3 -11 1 -8 -4 3 -6 11 -10 16 -10 6 0 17 -6 25 -14 7 -8 18 -16 22
-18 5 -1 11 -38 14 -80 3 -43 1 -75 -4 -72 -4 3 -8 36 -8 75 0 57 -3 69 -16
69 -14 0 -15 -9 -9 -62 3 -35 11 -77 16 -94 13 -42 66 -90 114 -103 51 -14
265 -15 265 -1 0 6 -45 10 -116 10 -126 0 -196 19 -222 61 -20 32 -10 31 26
-2 39 -36 93 -47 225 -45 87 2 97 0 97 -15 0 -10 4 -20 10 -24 5 -3 8 7 7 25
l-2 30 -133 0 c-152 0 -186 10 -217 63 -22 37 -23 54 -27 457 l-3 275 -2 -255
c-3 -188 -7 -256 -16 -262 -9 -6 -8 -10 3 -18 13 -8 13 -10 -1 -10 -22 0 -33
29 -14 36 13 5 15 196 15 1570 0 1236 -3 1564 -13 1565 -6 0 -2 5 11 11 24 12
28 38 11 67 -27 42 18 134 83 167 44 23 43 12 -1 -16 -43 -26 -71 -66 -78
-111 -6 -41 4 -36 17 9 22 80 75 112 185 112 53 0 75 4 75 13 -1 35 -23 40
-152 29z m22 -22 c0 -5 -4 -10 -10 -10 -5 0 -10 5 -10 10 0 6 5 10 10 10 6 0
10 -4 10 -10z m83 -7 c-7 -2 -21 -2 -30 0 -10 3 -4 5 12 5 17 0 24 -2 18 -5z
m-233 -209 c0 -8 -5 -12 -10 -9 -6 4 -8 11 -5 16 9 14 15 11 15 -7z"/>
<path d="M2458 4823 c7 -3 16 -2 19 1 4 3 -2 6 -13 5 -11 0 -14 -3 -6 -6z"/>
<path d="M3648 4793 c7 -3 16 -2 19 1 4 3 -2 6 -13 5 -11 0 -14 -3 -6 -6z"/>
<path d="M2213 4769 c-18 -5 -41 -22 -50 -36 -17 -26 -18 -126 -21 -1738 -2
-1274 1 -1717 9 -1738 21 -51 41 -57 192 -57 114 0 137 2 135 14 -2 8 2 15 7
15 6 0 9 -7 7 -16 -5 -21 36 -8 68 23 l25 24 5 613 c3 336 7 613 8 614 1 1 16
18 33 37 23 27 43 37 85 46 29 6 54 14 54 17 0 10 -95 -9 -122 -25 -35 -21
-78 -110 -73 -151 2 -17 0 -31 -5 -31 -6 0 -10 5 -10 12 0 6 -3 8 -7 4 -5 -4
0 -14 11 -21 17 -13 18 -35 12 -532 -3 -285 -9 -534 -12 -553 -3 -19 -16 -42
-27 -51 -18 -15 -23 -15 -35 -3 -8 8 -23 12 -33 9 -11 -4 -19 -2 -19 4 0 6 6
11 13 12 6 0 24 2 38 3 20 1 25 -2 21 -13 -4 -9 -1 -12 7 -7 7 4 10 13 8 19
-2 7 0 20 5 31 13 24 21 1066 9 1066 -5 0 -11 -6 -14 -12 -2 -7 -3 4 -3 24 1
23 6 38 14 38 6 0 12 10 12 23 0 38 34 120 53 125 9 2 17 8 17 12 0 5 14 13
30 19 17 5 30 15 30 22 0 6 7 9 15 5 8 -3 15 -1 15 4 0 14 27 13 32 -1 2 -7
107 -10 338 -9 184 1 349 3 367 5 100 9 163 18 203 30 25 7 65 17 90 23 25 6
62 18 82 26 21 9 39 16 40 15 2 -1 27 13 56 30 29 17 55 31 58 31 3 0 27 17
52 38 26 20 55 44 66 52 10 8 36 31 57 51 21 21 41 34 45 30 4 -3 4 -1 1 5 -3
6 15 32 41 59 25 27 40 46 32 42 -8 -5 -5 0 8 9 12 9 22 25 22 36 0 10 5 16
10 13 6 -4 10 -3 8 2 -3 13 44 107 61 119 8 6 11 16 7 22 -4 7 -3 12 2 12 6 0
10 6 9 13 -1 33 4 48 14 41 7 -4 10 -1 7 7 -3 8 -1 22 4 32 5 10 11 37 14 60
2 23 8 62 13 87 16 75 22 170 11 170 -6 0 -10 -8 -10 -17 -1 -17 -1 -17 -11 0
-15 26 -4 53 16 37 11 -9 14 -7 14 12 -1 55 -22 204 -30 214 -5 6 -6 13 -3 17
3 3 1 14 -5 25 -6 10 -12 34 -15 53 -6 48 -26 102 -43 116 -8 6 -12 16 -9 22
3 5 -1 16 -9 25 -9 8 -16 19 -15 23 0 4 -13 28 -29 53 -15 25 -34 55 -40 68
-6 12 -18 22 -26 22 -8 0 -15 5 -15 11 0 5 5 7 12 3 7 -4 8 -3 4 5 -4 6 -12 9
-17 5 -5 -3 -8 0 -7 8 2 7 -3 12 -10 10 -8 -1 -11 1 -8 6 2 4 -20 32 -50 61
-30 29 -54 51 -54 48 0 -2 -19 13 -41 34 -23 21 -51 41 -62 45 -12 4 -27 13
-35 20 -7 8 -18 12 -23 9 -5 -4 -9 -2 -9 3 0 16 -221 107 -233 95 -3 -2 -14 0
-25 6 -11 6 -35 13 -53 16 -19 2 -56 9 -84 15 -75 16 -1135 10 -1135 -6 0 -9
120 -12 527 -13 319 0 560 -5 612 -12 87 -11 189 -33 226 -48 78 -32 151 -68
157 -76 4 -5 8 -7 8 -3 0 4 28 -12 63 -36 34 -24 61 -49 59 -56 -1 -6 2 -9 8
-5 12 7 131 -95 124 -107 -3 -4 -1 -8 4 -8 14 0 101 -116 108 -145 3 -14 10
-25 14 -25 7 0 54 -99 79 -165 19 -52 40 -157 47 -238 6 -73 5 -79 -15 -93
l-22 -16 22 -36 c19 -32 20 -46 14 -112 -7 -82 -37 -205 -47 -194 -4 3 -4 -4
-1 -17 4 -15 3 -20 -5 -15 -8 4 -10 2 -6 -8 10 -26 -82 -197 -154 -286 -38
-47 -74 -84 -81 -82 -7 1 -10 -1 -7 -6 6 -11 -30 -45 -107 -101 -98 -72 -296
-156 -392 -167 -16 -2 -50 -8 -75 -13 -87 -19 -128 -20 -445 -21 -188 -1 -331
3 -346 8 -20 8 -39 5 -85 -14 -32 -13 -60 -28 -62 -34 -2 -5 -10 -10 -18 -10
-17 0 -64 -93 -64 -126 0 -12 -7 -27 -15 -34 -14 -12 -18 -103 -3 -94 4 3 7
-221 8 -496 0 -503 -1 -528 -34 -552 -6 -4 -19 -2 -29 4 -12 6 -17 6 -13 0 3
-5 -4 -12 -15 -15 -13 -4 -20 -11 -16 -20 11 -30 -8 -34 -125 -28 -64 3 -119
9 -123 13 -22 22 -33 162 -13 174 8 5 7 10 -3 18 -12 9 -14 140 -15 829 -1
587 2 817 10 817 8 0 10 -197 8 -700 -2 -569 -1 -700 10 -700 10 0 13 59 11
297 -1 207 2 302 10 311 8 10 8 15 -1 20 -7 5 -10 38 -9 87 0 44 -2 86 -7 93
-4 6 -4 12 1 12 7 0 9 1319 3 1883 -1 119 2 172 10 182 8 10 10 29 7 53 -8 44
9 82 43 99 18 9 20 13 8 13 -10 0 -18 4 -18 10 0 5 -8 7 -17 3 -20 -6 -43 -32
-43 -46 0 -4 6 -5 13 -2 6 4 5 1 -3 -7 -9 -7 -16 -24 -16 -38 0 -14 7 -30 16
-37 13 -11 13 -12 -3 -13 -16 0 -17 -39 -14 -755 2 -613 0 -755 -10 -755 -11
0 -13 149 -11 793 4 948 -9 867 136 882 34 4 62 11 62 16 0 12 -95 10 -137 -2z
m12 -59 c-3 -5 -10 -10 -16 -10 -5 0 -9 5 -9 10 0 6 7 10 16 10 8 0 12 -4 9
-10z m565 -2084 c0 -3 -4 -8 -10 -11 -5 -3 -10 -1 -10 4 0 6 5 11 10 11 6 0
10 -2 10 -4z m-330 -1406 c0 -5 -2 -10 -4 -10 -3 0 -8 5 -11 10 -3 6 -1 10 4
10 6 0 11 -4 11 -10z"/>
<path d="M2352 4760 c-13 -22 -16 -51 -4 -48 4 1 19 -6 34 -16 26 -17 48 -15
48 5 0 5 -6 9 -12 7 -26 -4 -57 13 -55 32 1 15 7 19 24 15 13 -2 23 0 23 6 0
5 177 10 433 12 l432 2 -442 3 c-345 1 -442 -1 -446 -10 -4 -10 -6 -10 -6 0
-1 18 -15 15 -29 -8z"/>
<path d="M3298 4773 c12 -2 30 -2 40 0 9 3 -1 5 -23 4 -22 0 -30 -2 -17 -4z"/>
<path d="M3388 4773 c18 -2 45 -2 60 0 15 2 0 4 -33 4 -33 0 -45 -2 -27 -4z"/>
<path d="M3528 4763 c12 -2 30 -2 40 0 9 3 -1 5 -23 4 -22 0 -30 -2 -17 -4z"/>
<path d="M3635 4745 c28 -7 59 -13 70 -13 l20 -1 -20 8 c-11 5 -42 11 -70 14
l-50 6 50 -14z"/>
<path d="M2300 4725 c0 -8 5 -15 10 -15 6 0 10 7 10 15 0 8 -4 15 -10 15 -5 0
-10 -7 -10 -15z"/>
<path d="M2385 4730 c3 -5 8 -10 11 -10 2 0 4 5 4 10 0 6 -5 10 -11 10 -5 0
-7 -4 -4 -10z"/>
<path d="M3740 4720 c8 -5 22 -9 30 -9 10 0 8 3 -5 9 -27 12 -43 12 -25 0z"/>
<path d="M3853 4683 c9 -14 47 -24 47 -12 0 5 -4 9 -9 9 -5 0 -17 3 -27 7 -11
4 -15 3 -11 -4z"/>
<path d="M3991 4665 c5 -4 105 -69 137 -89 6 -4 12 -5 12 -2 0 6 -137 96 -146
96 -4 0 -5 -2 -3 -5z"/>
<path d="M3930 4646 c0 -2 7 -7 16 -10 8 -3 12 -2 9 4 -6 10 -25 14 -25 6z"/>
<path d="M3985 4614 c36 -28 61 -36 30 -10 -16 14 -34 25 -40 25 -5 0 -1 -7
10 -15z"/>
<path d="M1987 4559 c4 -13 8 -18 11 -10 2 7 -1 18 -6 23 -8 8 -9 4 -5 -13z"/>
<path d="M2091 4554 c0 -11 3 -14 6 -6 3 7 2 16 -1 19 -3 4 -6 -2 -5 -13z"/>
<path d="M4095 4530 c21 -16 42 -30 47 -30 5 0 -7 14 -25 30 -19 17 -40 30
-47 30 -7 0 4 -13 25 -30z"/>
<path d="M1971 4534 c0 -11 3 -14 6 -6 3 7 2 16 -1 19 -3 4 -6 -2 -5 -13z"/>
<path d="M4326 4527 c3 -10 9 -15 12 -12 3 3 0 11 -7 18 -10 9 -11 8 -5 -6z"/>
<path d="M1820 4496 c0 -8 4 -17 9 -20 5 -4 7 3 4 14 -6 23 -13 26 -13 6z"/>
<path d="M4202 4437 c29 -29 55 -52 58 -50 6 5 -92 102 -103 103 -5 0 15 -24
45 -53z"/>
<path d="M1806 4447 c3 -10 9 -15 12 -12 3 3 0 11 -7 18 -10 9 -11 8 -5 -6z"/>
<path d="M2740 4414 c0 -10 -25 -17 -87 -26 -7 -1 -13 -5 -13 -10 0 -5 -6 -6
-12 -2 -7 4 -10 4 -6 0 3 -4 -6 -20 -21 -34 -27 -27 -51 -88 -57 -147 -2 -16
-3 -236 -4 -488 0 -253 -4 -455 -9 -453 -16 10 -20 -37 -7 -63 8 -14 19 -44
25 -67 6 -22 23 -57 38 -76 27 -36 70 -64 81 -53 3 3 0 5 -6 5 -16 0 -69 60
-88 100 -10 19 -17 47 -16 62 0 19 -4 28 -14 28 -8 0 -12 5 -9 10 4 7 12 7 25
0 23 -12 30 -13 30 -1 0 5 -8 12 -17 14 -17 4 -17 5 0 6 16 1 17 28 15 449
l-3 447 -2 -441 -3 -441 -25 -11 c-16 -7 -25 -8 -25 -1 0 5 6 12 13 14 9 4 13
110 15 473 1 257 5 485 8 507 7 47 25 95 37 95 5 0 6 4 3 9 -3 5 12 21 34 36
l39 27 397 -1 c218 -1 419 -6 448 -12 76 -14 155 -38 201 -61 22 -12 41 -20
43 -19 1 1 9 -4 16 -11 8 -7 26 -22 42 -33 33 -24 125 -115 116 -115 -4 0 -2
-4 4 -8 20 -14 70 -97 88 -147 10 -27 20 -57 23 -65 4 -8 7 -19 8 -25 1 -5 3
-12 5 -15 1 -3 4 -14 5 -25 2 -11 5 -39 8 -63 3 -23 9 -47 13 -54 4 -7 3 -8
-4 -4 -7 4 -12 1 -12 -8 0 -9 5 -16 11 -16 7 0 9 -12 5 -32 -3 -18 -10 -63
-16 -100 -9 -67 -38 -162 -68 -228 -42 -93 -176 -226 -277 -274 -135 -65 -315
-86 -715 -85 -144 0 -216 -3 -218 -10 -2 -6 -8 -11 -13 -11 -14 0 -11 37 4 43
7 3 119 6 247 6 129 1 237 4 239 7 3 3 -112 4 -255 4 l-261 -2 5 -24 c4 -21 1
-24 -29 -24 -32 0 -32 0 -13 -18 17 -17 23 -17 51 -5 24 10 105 13 315 14 413
3 506 15 651 87 39 19 76 35 80 34 5 -2 6 2 2 8 -3 5 -2 10 2 10 5 0 26 15 48
34 22 19 43 32 47 30 4 -3 5 2 2 10 -3 9 -1 16 5 16 6 0 33 34 60 75 147 225
160 532 34 778 -19 37 -49 84 -67 104 -42 50 -119 123 -129 123 -5 0 -5 6 -1
13 4 6 4 9 -1 5 -4 -4 -30 5 -59 20 -158 85 -206 92 -645 94 -243 1 -368 5
-373 12 -5 8 -8 7 -8 0z"/>
<path d="M1930 4371 c0 -6 4 -13 10 -16 6 -3 7 1 4 9 -7 18 -14 21 -14 7z"/>
<path d="M2712 4359 c-68 -13 -110 -54 -125 -124 -5 -20 1 -13 17 20 24 54 56
76 134 95 23 6 42 13 42 15 0 6 -14 5 -68 -6z"/>
<path d="M2810 4360 c0 -5 7 -10 15 -10 8 0 15 5 15 10 0 6 -7 10 -15 10 -8 0
-15 -4 -15 -10z"/>
<path d="M2860 4360 c0 -6 12 -10 27 -10 29 0 24 12 -7 17 -11 2 -20 -2 -20
-7z"/>
<path d="M4270 4369 c0 -3 11 -20 25 -39 14 -19 25 -30 25 -24 0 10 -49 73
-50 63z"/>
<path d="M2987 4353 c18 -2 50 -2 70 0 21 2 7 4 -32 4 -38 0 -55 -2 -38 -4z"/>
<path d="M3340 4350 c98 -4 204 -14 242 -23 180 -44 317 -151 400 -315 26 -50
52 -117 59 -149 7 -32 14 -51 16 -41 6 24 -43 164 -80 228 -43 76 -158 188
-235 229 -116 60 -176 72 -387 76 l-190 3 175 -8z"/>
<path d="M2699 4294 c-41 -17 -69 -66 -68 -117 0 -29 2 -27 13 16 16 58 32 76
89 99 24 9 33 17 22 17 -11 0 -36 -7 -56 -15z"/>
<path d="M2823 4303 c9 -2 23 -2 30 0 6 3 -1 5 -18 5 -16 0 -22 -2 -12 -5z"/>
<path d="M2905 4282 c-82 -1 -157 -5 -165 -9 -8 -3 -19 -5 -24 -4 -20 4 -44
-33 -50 -76 -11 -80 -7 -958 4 -961 12 -4 13 -39 2 -44 -5 -1 -3 -16 5 -33 8
-16 12 -21 10 -10 -2 11 2 33 9 50 10 24 9 31 -2 40 -12 9 -14 83 -14 465 1
250 3 466 5 480 2 14 4 33 4 43 1 11 6 15 13 11 6 -4 8 -3 5 3 -12 20 60 24
415 24 321 0 360 -2 431 -20 169 -44 283 -134 354 -281 43 -88 72 -215 57
-248 -10 -24 -12 -62 -2 -55 5 2 6 13 3 24 -4 11 -2 19 4 19 14 0 14 3 -3
-100 -35 -213 -126 -347 -287 -426 -122 -61 -187 -69 -541 -68 -220 0 -321 4
-330 12 -9 7 -19 8 -28 2 -12 -8 -10 -10 8 -10 13 0 22 -6 22 -15 0 -16 33
-17 58 -2 7 5 12 3 12 -3 0 -9 77 -10 288 -7 158 2 303 7 322 11 66 12 83 15
119 27 174 56 302 190 357 375 23 74 25 273 5 354 -42 171 -188 339 -334 385
-28 9 -59 19 -67 22 -23 9 -21 9 -80 16 -65 8 -374 13 -585 9z"/>
<path d="M4330 4284 c0 -5 7 -18 15 -28 8 -11 15 -16 15 -10 0 5 -7 18 -15 28
-8 11 -15 16 -15 10z"/>
<path d="M1948 4233 c5 -21 7 -23 10 -9 2 10 0 22 -6 28 -6 6 -7 0 -4 -19z"/>
<path d="M3690 4246 c0 -3 9 -10 20 -16 11 -6 20 -8 20 -6 0 3 -9 10 -20 16
-11 6 -20 8 -20 6z"/>
<path d="M4380 4190 c6 -11 13 -20 16 -20 2 0 0 9 -6 20 -6 11 -13 20 -16 20
-2 0 0 -9 6 -20z"/>
<path d="M2093 4165 c0 -22 2 -30 4 -17 2 12 2 30 0 40 -3 9 -5 -1 -4 -23z"/>
<path d="M2583 4165 c0 -22 2 -30 4 -17 2 12 2 30 0 40 -3 9 -5 -1 -4 -23z"/>
<path d="M3218 4183 c7 -3 16 -2 19 1 4 3 -2 6 -13 5 -11 0 -14 -3 -6 -6z"/>
<path d="M1841 4144 c0 -11 3 -14 6 -6 3 7 2 16 -1 19 -3 4 -6 -2 -5 -13z"/>
<path d="M1995 4140 c-3 -5 -1 -10 4 -10 6 0 11 5 11 10 0 6 -2 10 -4 10 -3 0
-8 -4 -11 -10z"/>
<path d="M3465 4130 c-3 -6 1 -7 9 -4 18 7 21 14 7 14 -6 0 -13 -4 -16 -10z"/>
<path d="M3860 4115 c40 -48 43 -51 32 -30 -6 11 -21 29 -34 40 -22 19 -22 19
2 -10z"/>
<path d="M4426 4083 c8 -33 33 -92 34 -80 0 12 -32 107 -36 107 -3 0 -1 -12 2
-27z"/>
<path d="M1909 4069 l-24 -20 28 17 c15 9 27 18 27 20 0 8 -8 4 -31 -17z"/>
<path d="M3590 4066 c0 -2 7 -7 16 -10 8 -3 12 -2 9 4 -6 10 -25 14 -25 6z"/>
<path d="M1991 4044 c0 -11 3 -14 6 -6 3 7 2 16 -1 19 -3 4 -6 -2 -5 -13z"/>
<path d="M3909 4042 c6 -12 16 -24 22 -28 8 -4 8 -1 0 14 -6 12 -16 24 -22 28
-8 4 -8 1 0 -14z"/>
<path d="M1851 4034 c0 -11 3 -14 6 -6 3 7 2 16 -1 19 -3 4 -6 -2 -5 -13z"/>
<path d="M3670 4030 c0 -5 5 -10 11 -10 5 0 7 5 4 10 -3 6 -8 10 -11 10 -2 0
-4 -4 -4 -10z"/>
<path d="M1900 4018 c0 -3 7 -19 15 -34 8 -16 15 -22 15 -14 -1 8 -7 24 -15
34 -8 11 -15 17 -15 14z"/>
<path d="M1567 3995 c3 -8 9 -12 14 -9 12 7 11 11 -5 17 -10 4 -13 1 -9 -8z"/>
<path d="M1980 3991 c0 -6 4 -13 10 -16 6 -3 7 1 4 9 -7 18 -14 21 -14 7z"/>
<path d="M4460 3974 c0 -10 5 -26 10 -34 8 -11 9 -7 4 15 -8 37 -14 45 -14 19z"/>
<path d="M3950 3975 c0 -5 5 -17 10 -25 5 -8 10 -10 10 -5 0 6 -5 17 -10 25
-5 8 -10 11 -10 5z"/>
<path d="M2801 3954 c0 -11 3 -14 6 -6 3 7 2 16 -1 19 -3 4 -6 -2 -5 -13z"/>
<path d="M1877 3945 c-4 -8 -3 -16 1 -19 4 -3 9 4 9 15 2 23 -3 25 -10 4z"/>
<path d="M4632 3926 c7 -8 15 -12 17 -11 5 6 -10 25 -20 25 -5 0 -4 -6 3 -14z"/>
<path d="M3981 3894 c0 -11 3 -14 6 -6 3 7 2 16 -1 19 -3 4 -6 -2 -5 -13z"/>
<path d="M2621 3884 c0 -11 3 -14 6 -6 3 7 2 16 -1 19 -3 4 -6 -2 -5 -13z"/>
<path d="M4706 3873 c-6 -14 -5 -15 5 -6 7 7 10 15 7 18 -3 3 -9 -2 -12 -12z"/>
<path d="M3781 3844 c0 -11 3 -14 6 -6 3 7 2 16 -1 19 -3 4 -6 -2 -5 -13z"/>
<path d="M4492 3820 c0 -19 2 -27 5 -17 2 9 2 25 0 35 -3 9 -5 1 -5 -18z"/>
<path d="M4002 3810 c0 -14 2 -19 5 -12 2 6 2 18 0 25 -3 6 -5 1 -5 -13z"/>
<path d="M1958 3773 c5 -21 7 -23 10 -9 2 10 0 22 -6 28 -6 6 -7 0 -4 -19z"/>
<path d="M1620 3786 c0 -4 7 -14 15 -22 8 -9 15 -11 15 -6 0 5 -7 15 -15 22
-8 7 -15 9 -15 6z"/>
<path d="M1995 3780 c-3 -5 -1 -10 4 -10 6 0 11 5 11 10 0 6 -2 10 -4 10 -3 0
-8 -4 -11 -10z"/>
<path d="M4050 3771 c0 -5 5 -13 10 -16 6 -3 10 -2 10 4 0 5 -4 13 -10 16 -5
3 -10 2 -10 -4z"/>
<path d="M1981 3743 c0 -12 -4 -30 -7 -40 -5 -17 -5 -17 6 0 6 10 9 28 7 40
-4 22 -4 22 -6 0z"/>
<path d="M4008 3714 c-2 -25 -1 -47 3 -49 3 -2 6 18 8 46 3 62 -6 65 -11 3z"/>
<path d="M4063 3665 c0 -38 2 -53 4 -32 2 20 2 52 0 70 -2 17 -4 1 -4 -38z"/>
<path d="M4499 3703 c-3 -16 -1 -44 2 -63 5 -28 7 -23 8 28 1 65 -4 82 -10 35z"/>
<path d="M3835 3710 c3 -5 8 -10 11 -10 2 0 4 5 4 10 0 6 -5 10 -11 10 -5 0
-7 -4 -4 -10z"/>
<path d="M4992 3660 c0 -14 2 -19 5 -12 2 6 2 18 0 25 -3 6 -5 1 -5 -13z"/>
<path d="M4701 3654 c0 -11 3 -14 6 -6 3 7 2 16 -1 19 -3 4 -6 -2 -5 -13z"/>
<path d="M3872 3640 c0 -14 2 -19 5 -12 2 6 2 18 0 25 -3 6 -5 1 -5 -13z"/>
<path d="M4572 3593 c-3 -60 -34 -218 -59 -298 -24 -78 -86 -203 -140 -285
-47 -70 -147 -181 -201 -223 -95 -74 -157 -113 -226 -146 -231 -109 -383 -132
-861 -131 -194 1 -331 -3 -333 -8 -1 -5 6 -12 18 -15 11 -3 20 -2 20 1 0 4
144 6 319 4 361 -4 485 7 662 57 408 117 716 453 798 873 25 129 31 216 16
221 -7 3 -12 -15 -13 -50z"/>
<path d="M4630 3639 c0 -5 5 -7 10 -4 6 3 10 8 10 11 0 2 -4 4 -10 4 -5 0 -10
-5 -10 -11z"/>
<path d="M2861 3624 c0 -11 3 -14 6 -6 3 7 2 16 -1 19 -3 4 -6 -2 -5 -13z"/>
<path d="M3051 3614 c0 -11 3 -14 6 -6 3 7 2 16 -1 19 -3 4 -6 -2 -5 -13z"/>
<path d="M4002 3580 c0 -19 2 -27 5 -17 2 9 2 25 0 35 -3 9 -5 1 -5 -18z"/>
<path d="M4926 3592 c-2 -4 0 -14 6 -22 8 -12 9 -12 5 2 -3 9 -1 19 6 22 9 3
9 5 0 5 -6 1 -14 -3 -17 -7z"/>
<path d="M1936 3575 c-3 -8 -1 -15 4 -15 6 0 10 7 10 15 0 8 -2 15 -4 15 -2 0
-6 -7 -10 -15z"/>
<path d="M4840 3571 c0 -6 4 -13 10 -16 6 -3 7 1 4 9 -7 18 -14 21 -14 7z"/>
<path d="M4051 3558 c0 -9 -4 -25 -7 -35 -5 -14 -4 -15 5 -7 7 7 11 22 8 35
-2 13 -5 16 -6 7z"/>
<path d="M1900 3541 c0 -10 29 -36 34 -30 1 2 -6 12 -16 22 -10 9 -18 13 -18
8z"/>
<path d="M1990 3541 c0 -6 4 -12 8 -15 5 -3 9 1 9 9 0 8 -4 15 -9 15 -4 0 -8
-4 -8 -9z"/>
<path d="M3770 3539 c0 -5 5 -7 10 -4 6 3 10 8 10 11 0 2 -4 4 -10 4 -5 0 -10
-5 -10 -11z"/>
<path d="M4492 3530 c0 -14 2 -19 5 -12 2 6 2 18 0 25 -3 6 -5 1 -5 -13z"/>
<path d="M4630 3520 c0 -5 5 -10 10 -10 6 0 10 5 10 10 0 6 -4 10 -10 10 -5 0
-10 -4 -10 -10z"/>
<path d="M4035 3480 c-4 -12 -5 -24 -2 -27 3 -2 8 5 12 17 4 12 5 24 2 27 -3
2 -8 -5 -12 -17z"/>
<path d="M4481 3464 c0 -11 3 -14 6 -6 3 7 2 16 -1 19 -3 4 -6 -2 -5 -13z"/>
<path d="M1826 3453 c-6 -14 -5 -15 5 -6 7 7 10 15 7 18 -3 3 -9 -2 -12 -12z"/>
<path d="M2412 3430 c0 -14 2 -19 5 -12 2 6 2 18 0 25 -3 6 -5 1 -5 -13z"/>
<path d="M4011 3413 c-10 -26 -10 -27 4 -9 8 11 15 23 15 28 0 15 -7 8 -19
-19z"/>
<path d="M4460 3385 c-7 -25 -11 -48 -8 -51 3 -2 11 16 18 41 7 25 11 48 8 51
-3 2 -11 -16 -18 -41z"/>
<path d="M3990 3366 c0 -22 -113 -168 -157 -203 -64 -51 -196 -110 -276 -124
-39 -6 -76 -16 -82 -21 -6 -6 0 -7 15 -4 14 3 56 13 95 21 102 23 210 79 278
144 79 75 165 201 137 201 -6 0 -10 -6 -10 -14z"/>
<path d="M1831 3334 c0 -11 3 -14 6 -6 3 7 2 16 -1 19 -3 4 -6 -2 -5 -13z"/>
<path d="M3910 3320 c-6 -11 -8 -20 -6 -20 3 0 10 9 16 20 6 11 8 20 6 20 -3
0 -10 -9 -16 -20z"/>
<path d="M3250 3320 c0 -5 5 -10 11 -10 5 0 7 5 4 10 -3 6 -8 10 -11 10 -2 0
-4 -4 -4 -10z"/>
<path d="M4412 3235 c-12 -30 -37 -80 -57 -110 -19 -30 -35 -58 -35 -61 0 -4
-23 -35 -51 -70 -61 -77 -169 -177 -227 -211 -24 -14 -41 -28 -38 -30 8 -9
120 73 182 133 98 96 222 285 249 382 12 42 -2 22 -23 -33z"/>
<path d="M1920 3260 c0 -5 5 -10 11 -10 5 0 7 5 4 10 -3 6 -8 10 -11 10 -2 0
-4 -4 -4 -10z"/>
<path d="M1997 3240 c3 -11 7 -20 9 -20 2 0 4 9 4 20 0 11 -4 20 -9 20 -5 0
-7 -9 -4 -20z"/>
<path d="M4762 3240 c0 -14 2 -19 5 -12 2 6 2 18 0 25 -3 6 -5 1 -5 -13z"/>
<path d="M1941 3224 c0 -11 3 -14 6 -6 3 7 2 16 -1 19 -3 4 -6 -2 -5 -13z"/>
<path d="M2633 3214 c-9 -25 13 -40 26 -16 8 16 7 21 -5 26 -8 3 -17 -1 -21
-10z"/>
<path d="M1670 3146 c0 -14 4 -27 8 -30 5 -3 6 8 4 25 -5 35 -12 38 -12 5z"/>
<path d="M2092 3145 c0 -16 2 -22 5 -12 2 9 2 23 0 30 -3 6 -5 -1 -5 -18z"/>
<path d="M2570 3157 c0 -9 5 -19 10 -22 6 -3 10 -2 10 4 0 6 7 8 15 5 8 -4 15
-1 15 5 0 6 -4 11 -9 11 -5 0 -16 3 -25 6 -10 4 -16 1 -16 -9z"/>
<path d="M2640 3140 c0 -19 -10 -24 -37 -21 -20 3 -15 -19 13 -56 27 -35 58
-53 107 -59 24 -3 27 -1 22 16 -7 23 2 60 16 60 5 0 8 -4 7 -9 -2 -5 0 -9 5
-10 4 -1 7 2 6 5 0 4 5 10 11 14 9 5 6 10 -9 15 -16 5 -26 2 -35 -10 -11 -15
-15 -16 -48 -2 -19 8 -39 20 -42 26 -8 12 5 15 20 4 5 -5 2 -1 -7 7 -8 9 -14
21 -11 28 2 6 -1 12 -7 12 -6 0 -11 -9 -11 -20z m25 -52 c14 -6 25 -17 25 -24
0 -6 7 -14 15 -18 8 -3 15 0 15 6 0 6 2 9 5 6 3 -3 3 -12 0 -20 -7 -17 -42
-13 -60 7 -52 57 -53 67 0 43z"/>
<path d="M3250 3150 c0 -5 5 -10 11 -10 5 0 7 5 4 10 -3 6 -8 10 -11 10 -2 0
-4 -4 -4 -10z"/>
<path d="M4513 3114 c0 -17 2 -22 7 -13 5 6 6 18 3 26 -8 19 -10 16 -10 -13z"/>
<path d="M2730 3121 c0 -6 -8 -7 -17 -4 -16 6 -16 5 -4 -10 8 -10 17 -14 20
-10 3 4 10 11 15 14 4 4 3 10 -3 13 -6 4 -11 3 -11 -3z"/>
<path d="M1810 3105 c0 -5 5 -17 10 -25 5 -8 10 -10 10 -5 0 6 -5 17 -10 25
-5 8 -10 11 -10 5z"/>
<path d="M1691 3064 c0 -11 3 -14 6 -6 3 7 2 16 -1 19 -3 4 -6 -2 -5 -13z"/>
<path d="M3518 3073 c7 -3 16 -2 19 1 4 3 -2 6 -13 5 -11 0 -14 -3 -6 -6z"/>
<path d="M2823 3063 c15 -2 39 -2 55 0 15 2 2 4 -28 4 -30 0 -43 -2 -27 -4z"/>
<path d="M3357 3013 c18 -2 50 -2 70 0 21 2 7 4 -32 4 -38 0 -55 -2 -38 -4z"/>
<path d="M1942 2960 c0 -14 2 -19 5 -12 2 6 2 18 0 25 -3 6 -5 1 -5 -13z"/>
<path d="M922 2910 c0 -14 2 -19 5 -12 2 6 2 18 0 25 -3 6 -5 1 -5 -13z"/>
<path d="M1981 2910 c14 -31 19 -36 19 -24 0 6 -7 19 -16 30 -14 18 -14 18 -3
-6z"/>
<path d="M1526 2857 c3 -10 9 -15 12 -12 3 3 0 11 -7 18 -10 9 -11 8 -5 -6z"/>
<path d="M1832 2850 c0 -14 2 -19 5 -12 2 6 2 18 0 25 -3 6 -5 1 -5 -13z"/>
<path d="M2093 2730 c0 -47 2 -66 4 -42 2 23 2 61 0 85 -2 23 -4 4 -4 -43z"/>
<path d="M3950 2725 c-14 -8 -20 -14 -15 -14 6 0 21 6 35 14 14 8 21 14 15 14
-5 0 -21 -6 -35 -14z"/>
<path d="M1830 2710 c0 -5 5 -10 11 -10 5 0 7 5 4 10 -3 6 -8 10 -11 10 -2 0
-4 -4 -4 -10z"/>
<path d="M4226 2703 c-6 -14 -5 -15 5 -6 7 7 10 15 7 18 -3 3 -9 -2 -12 -12z"/>
<path d="M3885 2696 c-11 -7 -33 -18 -50 -25 l-30 -11 30 6 c30 5 99 44 80 44
-6 0 -19 -6 -30 -14z"/>
<path d="M3712 2637 c-40 -11 -70 -22 -68 -24 6 -6 123 24 144 37 23 13 8 11
-76 -13z"/>
<path d="M2093 2540 c0 -41 2 -58 4 -37 2 20 2 54 0 75 -2 20 -4 3 -4 -38z"/>
<path d="M3520 2600 c-30 -5 -136 -9 -235 -11 l-180 -3 130 -6 c131 -5 286 3
360 19 34 7 35 9 10 9 -16 -1 -55 -4 -85 -8z"/>
<path d="M2780 2583 c0 -8 280 -7 310 1 8 2 -58 4 -147 5 -90 0 -163 -2 -163
-6z"/>
<path d="M1811 2544 c0 -11 3 -14 6 -6 3 7 2 16 -1 19 -3 4 -6 -2 -5 -13z"/>
<path d="M3153 2533 c9 -2 23 -2 30 0 6 3 -1 5 -18 5 -16 0 -22 -2 -12 -5z"/>
<path d="M2676 2521 c-3 -4 7 -6 22 -4 25 4 24 3 -8 -14 -29 -15 -35 -23 -33
-48 2 -22 0 -26 -7 -15 -8 12 -10 11 -10 -7 0 -18 6 -23 25 -23 14 0 25 -5 25
-11 0 -7 -10 -9 -24 -5 -22 5 -24 3 -21 -16 3 -16 8 -819 5 -893 0 -5 -5 -3
-10 5 -7 12 -10 8 -10 -15 0 -23 3 -27 10 -15 7 11 9 4 9 -25 -1 -35 -2 -37
-9 -15 -6 18 -8 7 -9 -41 -1 -37 -4 -81 -7 -98 -4 -21 -3 -31 5 -31 7 0 10 4
6 9 -3 5 -1 12 5 16 5 3 10 0 10 -7 0 -19 -18 -44 -26 -36 -8 8 -34 -16 -34
-31 0 -6 -4 -11 -10 -11 -5 0 -10 -6 -10 -12 0 -7 12 0 26 16 28 31 43 30 22
-3 -7 -12 -27 -24 -45 -27 -17 -3 -34 -13 -38 -22 -6 -16 -7 -16 -16 1 -14 25
-29 21 -29 -8 0 -29 15 -32 66 -10 41 17 94 67 94 89 0 9 3 16 8 16 4 0 8 26
10 58 2 31 5 72 7 91 3 19 0 40 -6 47 -6 8 -6 14 0 18 6 4 10 173 10 451 0
380 2 448 15 467 12 17 13 25 3 42 -16 28 -16 75 -1 69 7 -2 15 1 19 6 3 6 11
9 16 6 5 -3 6 1 2 10 -3 10 -1 20 6 24 7 4 -4 8 -23 9 -19 1 -38 -2 -40 -7z
m18 -146 c-4 -8 -14 -15 -23 -15 -14 1 -13 3 3 15 25 19 27 19 20 0z m-47
-1032 c-3 -10 -5 -2 -5 17 0 19 2 27 5 18 2 -10 2 -26 0 -35z"/>
<path d="M1842 2490 c0 -14 2 -19 5 -12 2 6 2 18 0 25 -3 6 -5 1 -5 -13z"/>
<path d="M1938 2469 c-3 -8 1 -20 8 -27 15 -14 17 -7 5 22 -6 15 -9 16 -13 5z"/>
<path d="M3208 2463 c7 -3 16 -2 19 1 4 3 -2 6 -13 5 -11 0 -14 -3 -6 -6z"/>
<path d="M3848 2463 c7 -3 16 -2 19 1 4 3 -2 6 -13 5 -11 0 -14 -3 -6 -6z"/>
<path d="M2093 2415 c0 -27 2 -38 4 -22 2 15 2 37 0 50 -2 12 -4 0 -4 -28z"/>
<path d="M3398 2433 c7 -3 16 -2 19 1 4 3 -2 6 -13 5 -11 0 -14 -3 -6 -6z"/>
<path d="M3695 2430 c-16 -7 -17 -9 -3 -9 9 -1 20 4 23 9 7 11 7 11 -20 0z"/>
<path d="M3768 2423 c7 -3 16 -2 19 1 4 3 -2 6 -13 5 -11 0 -14 -3 -6 -6z"/>
<path d="M3337 2409 c7 -7 15 -10 18 -7 3 3 -2 9 -12 12 -14 6 -15 5 -6 -5z"/>
<path d="M3556 2391 c-4 -5 3 -7 14 -4 23 6 26 13 6 13 -8 0 -17 -4 -20 -9z"/>
<path d="M3458 2383 c6 -2 18 -2 25 0 6 3 1 5 -13 5 -14 0 -19 -2 -12 -5z"/>
<path d="M1921 2364 c0 -11 3 -14 6 -6 3 7 2 16 -1 19 -3 4 -6 -2 -5 -13z"/>
<path d="M3305 2370 c3 -5 8 -10 11 -10 2 0 4 5 4 10 0 6 -5 10 -11 10 -5 0
-7 -4 -4 -10z"/>
<path d="M2930 2360 c-9 -6 -10 -10 -3 -10 6 0 15 5 18 10 8 12 4 12 -15 0z"/>
<path d="M3825 2360 c-16 -7 -17 -9 -3 -9 9 -1 20 4 23 9 7 11 7 11 -20 0z"/>
<path d="M2094 2215 c0 -71 1 -99 3 -62 2 37 2 96 0 130 -2 34 -3 4 -3 -68z"/>
<path d="M3328 2293 c7 -3 16 -2 19 1 4 3 -2 6 -13 5 -11 0 -14 -3 -6 -6z"/>
<path d="M3796 2291 c-4 -5 3 -7 14 -4 23 6 26 13 6 13 -8 0 -17 -4 -20 -9z"/>
<path d="M3735 2270 c-3 -6 1 -7 9 -4 18 7 21 14 7 14 -6 0 -13 -4 -16 -10z"/>
<path d="M1941 2214 c0 -11 3 -14 6 -6 3 7 2 16 -1 19 -3 4 -6 -2 -5 -13z"/>
<path d="M3320 2220 c0 -5 5 -10 11 -10 5 0 7 5 4 10 -3 6 -8 10 -11 10 -2 0
-4 -4 -4 -10z"/>
<path d="M1842 2160 c0 -14 2 -19 5 -12 2 6 2 18 0 25 -3 6 -5 1 -5 -13z"/>
<path d="M2959 2143 c-13 -17 -13 -17 6 -3 11 8 22 16 24 17 2 2 0 3 -6 3 -6
0 -17 -8 -24 -17z"/>
<path d="M1835 2100 c-3 -5 -1 -10 4 -10 6 0 11 5 11 10 0 6 -2 10 -4 10 -3 0
-8 -4 -11 -10z"/>
<path d="M2909 2073 c-13 -16 -12 -17 4 -4 16 13 21 21 13 21 -2 0 -10 -8 -17
-17z"/>
<path d="M2092 2045 c0 -16 2 -22 5 -12 2 9 2 23 0 30 -3 6 -5 -1 -5 -18z"/>
<path d="M2091 1974 c0 -11 3 -14 6 -6 3 7 2 16 -1 19 -3 4 -6 -2 -5 -13z"/>
<path d="M2007 1691 c-4 -17 -3 -21 5 -13 5 5 8 16 6 23 -3 8 -7 3 -11 -10z"/>
<path d="M1966 1657 c3 -10 9 -15 12 -12 3 3 0 11 -7 18 -10 9 -11 8 -5 -6z"/>
<path d="M2172 1593 l1 -68 7 50 c5 44 7 46 11 20 5 -24 6 -21 8 18 1 36 -3
47 -14 47 -12 0 -15 -13 -13 -67z"/>
<path d="M2632 1600 c0 -14 2 -19 5 -12 2 6 2 18 0 25 -3 6 -5 1 -5 -13z"/>
<path d="M2190 1518 c0 -27 5 -48 10 -48 6 0 10 -5 10 -11 0 -20 -24 -3 -31
22 -6 21 -7 21 -8 -8 -1 -18 4 -33 9 -33 15 0 12 -58 -2 -63 -7 -2 -10 -7 -7
-11 4 -4 13 0 22 8 8 8 16 13 18 11 8 -7 4 80 -4 92 -4 6 -2 13 3 15 7 2 6 15
-4 38 l-15 35 -1 -47z"/>
<path d="M2631 1524 c0 -11 3 -14 6 -6 3 7 2 16 -1 19 -3 4 -6 -2 -5 -13z"/>
<path d="M1980 1500 c0 -5 5 -10 11 -10 5 0 7 5 4 10 -3 6 -8 10 -11 10 -2 0
-4 -4 -4 -10z"/>
<path d="M2522 1470 c0 -19 2 -27 5 -17 2 9 2 25 0 35 -3 9 -5 1 -5 -18z"/>
<path d="M2027 1389 c4 -13 8 -18 11 -10 2 7 -1 18 -6 23 -8 8 -9 4 -5 -13z"/>
<path d="M2187 1353 c-13 -12 -7 -23 11 -22 10 0 12 3 4 6 -6 2 -10 9 -6 14 6
10 0 12 -9 2z"/>
<path d="M2181 1283 c-1 -23 33 -54 59 -52 8 0 3 5 -12 11 -16 5 -28 14 -28
19 0 6 7 6 18 1 9 -5 35 -9 57 -10 22 0 33 1 25 4 -8 3 -22 8 -30 11 -8 3 -26
5 -39 4 -18 -2 -22 1 -18 13 4 9 2 16 -3 16 -6 0 -10 -8 -11 -17 0 -15 -2 -15
-9 2 -8 19 -9 19 -9 -2z"/>
<path d="M2356 1251 c-4 -5 3 -7 14 -4 23 6 26 13 6 13 -8 0 -17 -4 -20 -9z"/>
<path d="M5663 483 c-7 -3 -13 -11 -13 -19 0 -9 -4 -12 -10 -9 -6 4 -7 -1 -3
-11 4 -12 3 -15 -5 -10 -7 4 -12 1 -12 -6 0 -16 -29 -42 -77 -70 -38 -23 -38
-21 -17 -53 9 -14 22 -21 30 -18 8 3 14 0 14 -5 0 -6 8 -13 18 -16 23 -8 55
-62 46 -78 -4 -7 -3 -8 4 -4 7 4 12 2 12 -3 0 -18 28 -12 43 9 8 11 17 18 20
15 4 -3 5 -2 2 1 -2 4 3 19 11 34 13 20 23 26 43 23 21 -3 23 -2 7 5 -18 8
-17 10 12 20 44 15 52 40 21 63 -13 11 -33 27 -43 36 -14 13 -17 14 -12 3 4
-8 -2 -4 -13 10 -11 14 -21 31 -21 38 0 7 -4 10 -10 7 -5 -3 -10 0 -10 8 0 19
-21 36 -37 30z m23 -35 c13 -42 44 -76 90 -98 l46 -23 -39 -17 c-46 -21 -77
-53 -96 -99 l-15 -34 -20 45 c-19 45 -57 79 -99 92 -29 9 -30 26 -2 26 28 0
109 81 109 109 0 28 17 27 26 -1z"/>
</g>
</svg>
